# xmcd CD database file
#
# Track frame offsets:
#	150
#	25630
#	78585
#	114290
#	160420
#	202950
#
# Disc length: 3083 seconds
#
# Revision: 0
# Processed by: cddbd v1.5.2PL0 Copyright (c) Steve Scherf et al.
# Submitted via: CDex 1.79
#
DISCID=3e0c0906
DTITLE=Unbekannt - Moments of Flowers
DYEAR=1989
DGENRE=New Age
TTITLE0=Ancient Rememberance
TTITLE1=Moment of Flowers I
TTITLE2=Heart Song
TTITLE3=Moment of Flowers II
TTITLE4=Joyous Existence
TTITLE5=Inner Dance
EXTD=YEAR: 1989
EXTT0=
EXTT1=
EXTT2=
EXTT3=
EXTT4=
EXTT5=
PLAYORDER=
